<svg width="24" height="5" viewBox="0 0 24 5" fill="none" xmlns="http://www.w3.org/2000/svg">
<path d="M4.75 2.375C4.75 3.00489 4.49978 3.60898 4.05438 4.05438C3.60898 4.49978 3.00489 4.75 2.375 4.75C1.74511 4.75 1.14102 4.49978 0.695621 4.05438C0.250223 3.60898 0 3.00489 0 2.375C0 1.74511 0.250223 1.14102 0.695621 0.695621C1.14102 0.250223 1.74511 0 2.375 0C3.00489 0 3.60898 0.250223 4.05438 0.695621C4.49978 1.14102 4.75 1.74511 4.75 2.375V2.375Z" fill="#909090"/>
<path d="M14 2.375C14 3.00489 13.7498 3.60898 13.3044 4.05438C12.859 4.49978 12.2549 4.75 11.625 4.75C10.9951 4.75 10.391 4.49978 9.94562 4.05438C9.50022 3.60898 9.25 3.00489 9.25 2.375C9.25 1.74511 9.50022 1.14102 9.94562 0.695621C10.391 0.250223 10.9951 0 11.625 0C12.2549 0 12.859 0.250223 13.3044 0.695621C13.7498 1.14102 14 1.74511 14 2.375V2.375Z" fill="#909090"/>
<path d="M23.25 2.375C23.25 3.00489 22.9998 3.60898 22.5544 4.05438C22.109 4.49978 21.5049 4.75 20.875 4.75C20.2451 4.75 19.641 4.49978 19.1956 4.05438C18.7502 3.60898 18.5 3.00489 18.5 2.375C18.5 1.74511 18.7502 1.14102 19.1956 0.695621C19.641 0.250223 20.2451 0 20.875 0C21.5049 0 22.109 0.250223 22.5544 0.695621C22.9998 1.14102 23.25 1.74511 23.25 2.375V2.375Z" fill="#909090"/>
</svg>
