<svg xmlns="http://www.w3.org/2000/svg" viewBox="0 0 13.74 15.97"><defs><style>.cls-1{fill:#09997f;}.cls-2{fill:#fff;}</style></defs><g id="Layer_2" data-name="Layer 2"><g id="Layer_1-2" data-name="Layer 1"><path class="cls-1" d="M6.87,15a7.8,7.8,0,0,1-3.07-.55,4.8,4.8,0,0,1-2-1.54A3.8,3.8,0,0,1,1,10.73a1.36,1.36,0,0,1,.39-1,1.35,1.35,0,0,1,1-.4H4.19c-.2-.08-.39-.16-.57-.25A4.19,4.19,0,0,1,1.9,7.64a4,4,0,0,1-.6-2.22A4,4,0,0,1,2,3.08,4.55,4.55,0,0,1,4,1.53,6.83,6.83,0,0,1,6.77,1a7.12,7.12,0,0,1,2.3.35,5.69,5.69,0,0,1,1.74,1,4.68,4.68,0,0,1,1.11,1.32,3.48,3.48,0,0,1,.44,1.51,1.45,1.45,0,0,1-.33.94,1.31,1.31,0,0,1-1,.46H9.84c.19.07.37.15.54.23A4.11,4.11,0,0,1,12.14,8.2a4,4,0,0,1,.6,2.21,4.07,4.07,0,0,1-.82,2.52,4.87,4.87,0,0,1-2.15,1.55A8.16,8.16,0,0,1,6.87,15ZM5.12,9.66a2.22,2.22,0,0,1,.37.38l.08.11,0,.13a1,1,0,0,0,.16.23.94.94,0,0,0,.34.19,2,2,0,0,0,.75.11A2.17,2.17,0,0,0,8,10.62L8,10.55a1.37,1.37,0,0,0-.53-.26C7.12,10.16,6.6,10,6,9.87,5.66,9.81,5.38,9.74,5.12,9.66Zm1.65-4.5A1.59,1.59,0,0,0,6,5.3c0,.06.09.15.42.27A12.23,12.23,0,0,0,7.84,6l.09,0a1.46,1.46,0,0,1-.17-.24L7.67,5.6l0-.18a.49.49,0,0,0-.13-.1A1.32,1.32,0,0,0,6.77,5.16Z"/><path class="cls-2" d="M6.77,2a6,6,0,0,1,2,.3,4.53,4.53,0,0,1,1.43.78,3.73,3.73,0,0,1,.87,1,2.38,2.38,0,0,1,.32,1.06.39.39,0,0,1-.09.26.35.35,0,0,1-.26.11H9.15a.6.6,0,0,1-.3-.07.58.58,0,0,1-.24-.23A1.13,1.13,0,0,0,8,4.48a2.32,2.32,0,0,0-1.27-.32,2.51,2.51,0,0,0-1.29.29A1,1,0,0,0,5,5.36,1,1,0,0,0,5.26,6a2.08,2.08,0,0,0,.81.48A13.39,13.39,0,0,0,7.6,7,10.51,10.51,0,0,1,10,7.68a3.12,3.12,0,0,1,1.35,1.08,3,3,0,0,1,.43,1.65,3,3,0,0,1-.62,1.91,3.84,3.84,0,0,1-1.71,1.22A6.86,6.86,0,0,1,6.87,14,6.75,6.75,0,0,1,4.2,13.5a3.89,3.89,0,0,1-1.62-1.21A2.87,2.87,0,0,1,2,10.69a.33.33,0,0,1,.1-.25.37.37,0,0,1,.25-.1H4.14a.55.55,0,0,1,.34.09.84.84,0,0,1,.21.21,1.67,1.67,0,0,0,.38.57,1.94,1.94,0,0,0,.69.43,3.24,3.24,0,0,0,1.11.17,3,3,0,0,0,1.62-.35,1.09,1.09,0,0,0,.54-1,.89.89,0,0,0-.29-.68,2.54,2.54,0,0,0-.91-.48A13.79,13.79,0,0,0,6.17,8.9a10.1,10.1,0,0,1-2.12-.71,3.13,3.13,0,0,1-1.31-1.1A3,3,0,0,1,2.3,5.42a3,3,0,0,1,.55-1.77A3.63,3.63,0,0,1,4.39,2.44,6,6,0,0,1,6.77,2m0-2A7.88,7.88,0,0,0,3.59.61,5.6,5.6,0,0,0,1.22,2.5,4.94,4.94,0,0,0,.3,5.42a5,5,0,0,0,.77,2.77,3.28,3.28,0,0,0,.27.38A2.26,2.26,0,0,0,.69,9,2.3,2.3,0,0,0,0,10.69v.08a4.86,4.86,0,0,0,1,2.7A5.87,5.87,0,0,0,3.4,15.34,8.92,8.92,0,0,0,6.87,16a9,9,0,0,0,3.26-.56,5.84,5.84,0,0,0,2.58-1.87,5,5,0,0,0,1-3.13A5,5,0,0,0,13,7.66a4.93,4.93,0,0,0-.5-.63,3.11,3.11,0,0,0,.32-.31,2.4,2.4,0,0,0,.56-1.55V5.11a4.38,4.38,0,0,0-.56-2,5.72,5.72,0,0,0-1.34-1.6A6.5,6.5,0,0,0,9.4.41,8.06,8.06,0,0,0,6.77,0Z"/></g></g></svg>