<svg width="63" height="39" viewBox="0 0 63 39" fill="none" xmlns="http://www.w3.org/2000/svg">
<path d="M7.704 18.24C6.28 18.24 5.056 18.024 4.032 17.592C3.008 17.16 2.232 16.592 1.704 15.888C1.176 15.184 0.896 14.424 0.864 13.608C0.864 13.464 0.912 13.344 1.008 13.248C1.104 13.152 1.224 13.104 1.368 13.104H3.504C3.696 13.104 3.84 13.144 3.936 13.224C4.048 13.288 4.152 13.4 4.248 13.56C4.408 14.104 4.776 14.56 5.352 14.928C5.928 15.296 6.712 15.48 7.704 15.48C8.84 15.48 9.696 15.296 10.272 14.928C10.848 14.544 11.136 14.016 11.136 13.344C11.136 12.896 10.984 12.528 10.68 12.24C10.392 11.952 9.952 11.704 9.36 11.496C8.784 11.288 7.92 11.032 6.768 10.728C4.88 10.28 3.496 9.688 2.616 8.952C1.752 8.2 1.32 7.136 1.32 5.76C1.32 4.832 1.568 4.008 2.064 3.288C2.576 2.568 3.304 2 4.248 1.584C5.208 1.168 6.32 0.959999 7.584 0.959999C8.896 0.959999 10.032 1.192 10.992 1.656C11.952 2.12 12.68 2.704 13.176 3.408C13.688 4.096 13.96 4.784 13.992 5.472C13.992 5.616 13.944 5.736 13.848 5.832C13.752 5.928 13.632 5.976 13.488 5.976H11.256C10.92 5.976 10.688 5.824 10.56 5.52C10.464 5.008 10.144 4.584 9.6 4.248C9.056 3.896 8.384 3.72 7.584 3.72C6.688 3.72 5.984 3.888 5.472 4.224C4.96 4.56 4.704 5.048 4.704 5.688C4.704 6.136 4.832 6.504 5.088 6.792C5.344 7.08 5.744 7.336 6.288 7.56C6.848 7.784 7.648 8.032 8.688 8.304C10.096 8.624 11.216 8.984 12.048 9.384C12.896 9.784 13.52 10.288 13.92 10.896C14.32 11.504 14.52 12.28 14.52 13.224C14.52 14.248 14.232 15.144 13.656 15.912C13.096 16.664 12.296 17.24 11.256 17.64C10.232 18.04 9.048 18.24 7.704 18.24ZM21.3549 18C21.1949 18 21.0589 17.944 20.9469 17.832C20.8349 17.72 20.7789 17.584 20.7789 17.424V4.152H16.3389C16.1789 4.152 16.0429 4.096 15.9309 3.984C15.8189 3.872 15.7629 3.736 15.7629 3.576V1.8C15.7629 1.624 15.8109 1.48 15.9069 1.368C16.0189 1.256 16.1629 1.2 16.3389 1.2H28.5789C28.7549 1.2 28.8989 1.256 29.0109 1.368C29.1229 1.48 29.1789 1.624 29.1789 1.8V3.576C29.1789 3.736 29.1229 3.872 29.0109 3.984C28.8989 4.096 28.7549 4.152 28.5789 4.152H24.1629V17.424C24.1629 17.584 24.1069 17.72 23.9949 17.832C23.8829 17.944 23.7389 18 23.5629 18H21.3549ZM38.3102 18.24C36.1502 18.24 34.4702 17.688 33.2702 16.584C32.0702 15.48 31.4702 13.808 31.4702 11.568V1.8C31.4702 1.624 31.5182 1.48 31.6142 1.368C31.7262 1.256 31.8702 1.2 32.0462 1.2H34.2302C34.4062 1.2 34.5422 1.256 34.6382 1.368C34.7502 1.48 34.8062 1.624 34.8062 1.8V11.568C34.8062 12.848 35.1102 13.816 35.7182 14.472C36.3262 15.112 37.1902 15.432 38.3102 15.432C39.4302 15.432 40.2862 15.112 40.8782 14.472C41.4862 13.816 41.7902 12.848 41.7902 11.568V1.8C41.7902 1.624 41.8462 1.48 41.9582 1.368C42.0702 1.256 42.2142 1.2 42.3902 1.2H44.5502C44.7262 1.2 44.8622 1.256 44.9582 1.368C45.0702 1.48 45.1262 1.624 45.1262 1.8V11.568C45.1262 13.808 44.5262 15.48 43.3262 16.584C42.1422 17.688 40.4702 18.24 38.3102 18.24ZM49.2996 18C49.1396 18 49.0036 17.944 48.8916 17.832C48.7796 17.72 48.7236 17.584 48.7236 17.424V1.8C48.7236 1.624 48.7716 1.48 48.8676 1.368C48.9796 1.256 49.1236 1.2 49.2996 1.2H55.1556C59.8596 1.2 62.2596 3.376 62.3556 7.728C62.3876 8.656 62.4036 9.28 62.4036 9.6C62.4036 9.904 62.3876 10.52 62.3556 11.448C62.2916 13.688 61.6916 15.344 60.5556 16.416C59.4196 17.472 57.6596 18 55.2756 18H49.2996ZM55.1556 15.24C56.4996 15.24 57.4676 14.944 58.0596 14.352C58.6516 13.744 58.9636 12.752 58.9956 11.376C59.0276 10.416 59.0436 9.816 59.0436 9.576C59.0436 9.32 59.0276 8.728 58.9956 7.8C58.9636 6.488 58.6276 5.52 57.9876 4.896C57.3636 4.272 56.3796 3.96 55.0356 3.96H52.0596V15.24H55.1556ZM15.5627 38C15.4027 38 15.2667 37.944 15.1547 37.832C15.0427 37.72 14.9867 37.584 14.9867 37.424V21.8C14.9867 21.624 15.0347 21.48 15.1307 21.368C15.2427 21.256 15.3867 21.2 15.5627 21.2H22.5227C24.3947 21.2 25.7867 21.616 26.6987 22.448C27.6267 23.264 28.0907 24.384 28.0907 25.808C28.0907 26.64 27.8827 27.352 27.4667 27.944C27.0667 28.52 26.5947 28.936 26.0507 29.192C26.7227 29.496 27.2827 29.992 27.7307 30.68C28.1947 31.368 28.4267 32.152 28.4267 33.032C28.4267 34.52 27.9227 35.72 26.9147 36.632C25.9227 37.544 24.5227 38 22.7147 38H15.5627ZM22.0907 28.088C22.9227 28.088 23.5547 27.888 23.9867 27.488C24.4187 27.088 24.6347 26.552 24.6347 25.88C24.6347 25.192 24.4187 24.664 23.9867 24.296C23.5547 23.912 22.9227 23.72 22.0907 23.72H18.3227V28.088H22.0907ZM22.3307 35.456C23.1627 35.456 23.8107 35.232 24.2747 34.784C24.7387 34.32 24.9707 33.736 24.9707 33.032C24.9707 32.312 24.7387 31.728 24.2747 31.28C23.8107 30.816 23.1627 30.584 22.3307 30.584H18.3227V35.456H22.3307ZM38.1358 38.24C35.9758 38.24 34.2958 37.688 33.0958 36.584C31.8958 35.48 31.2958 33.808 31.2958 31.568V21.8C31.2958 21.624 31.3438 21.48 31.4398 21.368C31.5518 21.256 31.6958 21.2 31.8718 21.2H34.0558C34.2318 21.2 34.3678 21.256 34.4638 21.368C34.5758 21.48 34.6318 21.624 34.6318 21.8V31.568C34.6318 32.848 34.9358 33.816 35.5438 34.472C36.1518 35.112 37.0158 35.432 38.1358 35.432C39.2558 35.432 40.1118 35.112 40.7038 34.472C41.3118 33.816 41.6158 32.848 41.6158 31.568V21.8C41.6158 21.624 41.6718 21.48 41.7838 21.368C41.8958 21.256 42.0398 21.2 42.2158 21.2H44.3758C44.5518 21.2 44.6878 21.256 44.7838 21.368C44.8958 21.48 44.9518 21.624 44.9518 21.8V31.568C44.9518 33.808 44.3518 35.48 43.1518 36.584C41.9678 37.688 40.2958 38.24 38.1358 38.24ZM49.1252 38C48.9652 38 48.8292 37.944 48.7172 37.832C48.6052 37.72 48.5492 37.584 48.5492 37.424V21.8C48.5492 21.624 48.5972 21.48 48.6932 21.368C48.8052 21.256 48.9492 21.2 49.1252 21.2H54.9812C59.6852 21.2 62.0852 23.376 62.1812 27.728C62.2132 28.656 62.2292 29.28 62.2292 29.6C62.2292 29.904 62.2132 30.52 62.1812 31.448C62.1172 33.688 61.5172 35.344 60.3812 36.416C59.2452 37.472 57.4852 38 55.1012 38H49.1252ZM54.9812 35.24C56.3252 35.24 57.2932 34.944 57.8852 34.352C58.4772 33.744 58.7892 32.752 58.8212 31.376C58.8532 30.416 58.8692 29.816 58.8692 29.576C58.8692 29.32 58.8532 28.728 58.8212 27.8C58.7892 26.488 58.4532 25.52 57.8132 24.896C57.1892 24.272 56.2052 23.96 54.8612 23.96H51.8852V35.24H54.9812Z" fill="#303030"/>
<path d="M2.088 32.168C1.928 32.168 1.792 32.112 1.68 32C1.568 31.888 1.512 31.752 1.512 31.592V30.008C1.512 29.832 1.568 29.696 1.68 29.6C1.792 29.488 1.928 29.432 2.088 29.432H9.456C9.632 29.432 9.768 29.488 9.864 29.6C9.976 29.696 10.032 29.832 10.032 30.008V31.592C10.032 31.752 9.976 31.888 9.864 32C9.768 32.112 9.632 32.168 9.456 32.168H2.088Z" fill="#09997F"/>
</svg>
